#!OML:ASF E:\acrobat2\Project_11_07_03\Capture day 1\Session 1\Acrobat.ASF
:FULLY-SPECIFIED
:DEGREES
59
root 11.031 21.3421 14.1169 4.59458 -0.313646 -0.414691
lowerback -5.4682 -3.05452 -0.523997
upperback -0.628106 -4.07585 1.40127
thorax 2.55205 -2.04346 1.42157
lowerneck 12.2712 -16.9659 -12.3075
upperneck -1.77972 -23.9726 13.1485
head 0.612808 -12.3584 5.85208
rclavicle -3.34455e-014 7.15625e-015
rhumerus -36.9093 0.227635 -85.35
rradius 24.3766
rwrist 4.48971
rhand -5.96114 -39.3286
rfingers 7.12502
rthumb 19.8697 -68.3329
lclavicle -3.34455e-014 7.15625e-015
lhumerus -32.0722 2.95178 86.3399
lradius 22.5846
lwrist -0.105775
lhand -2.94294 -13.4654
lfingers 7.12502
lthumb 22.7687 15.211
rfemur 0.987297 7.85847 15.0017
rtibia 0.728067
rfoot -26.4319 -4.93834
rtoes 8.92534
lfemur -0.70249 1.00645 -11.9233
ltibia 2.95256
lfoot -14.7087 -14.0674
ltoes 12.4023
60
root 11.0382 21.3417 14.13 4.4917 -0.149104 -0.348958
lowerback -5.44279 -3.08542 -0.574178
upperback -0.65929 -4.11329 1.38914
thorax 2.50951 -2.06233 1.43655
lowerneck 12.3087 -16.9463 -12.318
upperneck -1.66366 -23.9596 13.0435
head 0.628172 -12.3495 5.82352
rclavicle -1.50766e-014 -8.34896e-015
rhumerus -37.0357 0.231943 -85.3009
rradius 24.3073
rwrist 4.55525
rhand -5.9647 -39.3317
rfingers 7.12502
rthumb 19.8663 -68.3364
lclavicle -1.50766e-014 -8.34896e-015
lhumerus -32.2069 3.09022 86.3513
lradius 22.6472
lwrist -0.21303
lhand -2.88632 -13.446
lfingers 7.12502
lthumb 22.8231 15.2237
rfemur 1.21414 7.63347 14.9025
rtibia 0.642181
rfoot -26.0847 -4.88255
rtoes 10.0794
lfemur -0.538885 0.965918 -12.0633
ltibia 2.89466
lfoot -14.5194 -14.097
ltoes 12.7289
61
root 11.045 21.3416 14.1438 4.39152 0.0138419 -0.295201
lowerback -5.43102 -3.10377 -0.611459
upperback -0.686043 -4.1347 1.37108
thorax 2.47734 -2.07305 1.43864
lowerneck 12.3368 -16.9484 -12.2699
upperneck -1.54878 -23.966 12.9005
head 0.63571 -12.3492 5.77665
rclavicle 6.61891e-015 -1.39149e-014
rhumerus -37.1474 0.224799 -85.261
rradius 24.2293
rwrist 4.60291
rhand -5.95726 -39.3653
rfingers 7.12502
rthumb 19.8734 -68.3691
lclavicle 6.61891e-015 -1.39149e-014
lhumerus -32.3404 3.15079 86.3727
lradius 22.7247
lwrist -0.268044
lhand -2.80275 -13.4233
lfingers 7.12502
lthumb 22.9033 15.2365
rfemur 1.43911 7.41776 14.8191
rtibia 0.560299
rfoot -25.6738 -4.86214
rtoes 11.3096
lfemur -0.368538 0.925851 -12.1841
ltibia 2.8206
lfoot -14.3344 -14.0488
ltoes 12.8767
62
root 11.0512 21.3416 14.1573 4.3058 0.17304 -0.260033
lowerback -5.44498 -3.1113 -0.634994
upperback -0.701624 -4.14261 1.35206
thorax 2.46959 -2.07699 1.43132
lowerneck 12.3556 -16.9637 -12.1752
upperneck -1.45424 -23.9807 12.7463
head 0.632963 -12.3526 5.72168
rclavicle -3.24143e-014 1.15295e-014
rhumerus -37.2208 0.170982 -85.2111
rradius 24.1371
rwrist 4.68118
rhand -5.92339 -39.403
rfingers 7.12502
rthumb 19.906 -68.4035
lclavicle -3.24143e-014 1.15295e-014
lhumerus -32.4393 3.13167 86.4095
lradius 22.7946
lwrist -0.256537
lhand -2.7134 -13.3992
lfingers 7.12502
lthumb 22.989 15.2499
rfemur 1.64279 7.24205 14.7633
rtibia 0.487469
rfoot -25.2256 -4.91323
rtoes 12.4527
lfemur -0.213296 0.894142 -12.271
ltibia 2.73806
lfoot -14.1384 -13.914
ltoes 12.8703
63
root 11.0568 21.3418 14.1701 4.23728 0.330982 -0.248132
lowerback -5.4908 -3.10897 -0.635807
upperback -0.701181 -4.13881 1.33195
thorax 2.49407 -2.07499 1.40881
lowerneck 12.3695 -16.9842 -12.0552
upperneck -1.38568 -23.9965 12.6099
head 0.622662 -12.3571 5.66983
rclavicle 2.57799e-016 -9.93923e-015
rhumerus -37.2535 0.0537649 -85.1428
rradius 24.0421
rwrist 4.80567
rhand -5.85525 -39.4409
rfingers 7.12502
rthumb 19.9715 -68.4346
lclavicle 2.57799e-016 -9.93923e-015
lhumerus -32.4873 3.05035 86.4576
lradius 22.8468
lwrist -0.197696
lhand -2.64809 -13.3793
lfingers 7.12502
lthumb 23.0517 15.2621
rfemur 1.82226 7.11685 14.7435
rtibia 0.423208
rfoot -24.7715 -5.04483
rtoes 13.4411
lfemur -0.0815129 0.8804 -12.3155
ltibia 2.6537
lfoot -13.9142 -13.6978
ltoes 12.709
64
root 11.0617 21.3422 14.1818 4.18182 0.489379 -0.247151
lowerback -5.56031 -3.10363 -0.629237
upperback -0.68581 -4.13163 1.31354
thorax 2.54668 -2.07136 1.38233
lowerneck 12.3933 -16.9971 -11.9637
upperneck -1.34428 -24.0053 12.5277
head 0.611892 -12.36 5.63828
rclavicle 2.20309e-014 1.19271e-014
rhumerus -37.2508 -0.102791 -85.0575
rradius 23.9483
rwrist 4.96368
rhand -5.76588 -39.475
rfingers 7.12502
rthumb 20.0574 -68.4597
lclavicle 2.20309e-014 1.19271e-014
lhumerus -32.4914 2.93791 86.5181
lradius 22.8811
lwrist -0.109908
lhand -2.6407 -13.3741
lfingers 7.12502
lthumb 23.0588 15.2664
rfemur 1.98892 7.06314 14.7493
rtibia 0.352493
rfoot -24.3545 -5.26995
rtoes 14.244
lfemur 0.0277579 0.884645 -12.331
ltibia 2.57316
lfoot -13.6412 -13.4142
ltoes 12.494
65
root 11.0657 21.3428 14.193 4.13356 0.646473 -0.242351
lowerback -5.6448 -3.10208 -0.635689
upperback -0.658166 -4.1289 1.29908
thorax 2.62167 -2.0702 1.36552
lowerneck 12.4265 -16.9978 -11.9364
upperneck -1.31931 -24.0067 12.5025
head 0.608299 -12.361 5.63074
rclavicle 1.24831e-014 1.07344e-014
rhumerus -37.2142 -0.262237 -84.9638
rradius 23.8487
rwrist 5.12685
rhand -5.67234 -39.5162
rfingers 7.12502
rthumb 20.1473 -68.4915
lclavicle 1.24831e-014 1.07344e-014
lhumerus -32.4666 2.80879 86.5935
lradius 22.907
lwrist 0.00648785
lhand -2.70021 -13.3808
lfingers 7.12502
lthumb 23.0017 15.2668
rfemur 2.15798 7.08442 14.764
rtibia 0.256659
rfoot -24.0014 -5.58795
rtoes 14.8394
lfemur 0.126926 0.898079 -12.3377
ltibia 2.49074
lfoot -13.3121 -13.0841
ltoes 12.3884
66
root 11.0689 21.3435 14.2044 4.08678 0.801445 -0.23173
lowerback -5.72344 -3.10807 -0.663297
upperback -0.629757 -4.13514 1.29242
thorax 2.69655 -2.07379 1.36802
lowerneck 12.4458 -16.9924 -11.9611
upperneck -1.28083 -24.0072 12.4885
head 0.618049 -12.3613 5.62932
rclavicle 1.03135e-014 -6.95746e-015
rhumerus -37.1624 -0.38982 -84.8728
rradius 23.746
rwrist 5.26096
rhand -5.58111 -39.5894
rfingers 7.12502
rthumb 20.235 -68.5554
lclavicle 1.03135e-014 -6.95746e-015
lhumerus -32.4405 2.69956 86.6719
lradius 22.9365
lwrist 0.125242
lhand -2.80152 -13.3957
lfingers 7.12502
lthumb 22.9044 15.2639
rfemur 2.34327 7.16743 14.785
rtibia 0.123487
rfoot -23.717 -5.991
rtoes 15.1707
lfemur 0.230776 0.911339 -12.3408
ltibia 2.39593
lfoot -12.9415 -12.7279
ltoes 12.4466
67
root 11.0708 21.3444 14.216 4.03867 0.948937 -0.219398
lowerback -5.80158 -3.1217 -0.714858
upperback -0.592786 -4.15032 1.29499
thorax 2.78268 -2.08227 1.39227
lowerneck 12.4213 -16.9891 -12.001
upperneck -1.22243 -24.01 12.4583
head 0.640329 -12.361 5.61934
rclavicle 8.0104e-015 9.74045e-015
rhumerus -37.0847 -0.481185 -84.7926
rradius 23.6468
rwrist 5.36334
rhand -5.49242 -39.6879
rfingers 7.12502
rthumb 20.3202 -68.6449
lclavicle 8.0104e-015 9.74045e-015
lhumerus -32.3972 2.65353 86.7325
lradius 22.9583
lwrist 0.213243
lhand -2.90114 -13.4343
lfingers 7.12502
lthumb 22.8088 15.2372
rfemur 2.54937 7.33907 14.8225
rtibia -0.0529753
rfoot -23.511 -6.49455
rtoes 15.214
lfemur 0.346573 0.910069 -12.3352
ltibia 2.28092
lfoot -12.5601 -12.3543
ltoes 12.6559
68
root 11.0714 21.3451 14.2276 3.99235 1.07719 -0.22099
lowerback -5.87198 -3.1351 -0.77622
upperback -0.556828 -4.16481 1.3085
thorax 2.865 -2.09064 1.4337
lowerneck 12.3496 -16.9912 -12.0262
upperneck -1.13425 -24.0159 12.397
head 0.673397 -12.3599 5.59292
rclavicle -2.26319e-014 -1.0138e-014
rhumerus -37.0008 -0.546519 -84.724
rradius 23.5637
rwrist 5.44599
rhand -5.40567 -39.8095
rfingers 7.12502
rthumb 20.4036 -68.7575
lclavicle -2.26319e-014 -1.0138e-014
lhumerus -32.341 2.66917 86.768
lradius 22.9578
lwrist 0.2675
lhand -2.96003 -13.5044
lfingers 7.12502
lthumb 22.7523 15.174
rfemur 2.76469 7.63222 14.8977
rtibia -0.25968
rfoot -23.3942 -7.0915
rtoes 15.1184
lfemur 0.475755 0.878859 -12.3015
ltibia 2.13863
lfoot -12.2149 -11.9545
ltoes 12.9004
